<mxfile host="app.diagrams.net" agent="Mozilla/5.0 (Windows NT 10.0; Win64; x64) AppleWebKit/537.36 (KHTML, like Gecko) Chrome/138.0.0.0 Safari/537.36" version="28.0.6">
  <diagram id="avBcuN-JH5n7duV2s1PQ" name="Page-1">
    <mxGraphModel grid="1" page="1" gridSize="10" guides="1" tooltips="1" connect="1" arrows="1" fold="1" pageScale="1" pageWidth="827" pageHeight="1169" math="0" shadow="0">
      <root>
        <mxCell id="0" />
        <mxCell id="1" parent="0" />
        <mxCell id="dcfp-r2JtJvovMV6XzOt-4" style="edgeStyle=orthogonalEdgeStyle;rounded=0;orthogonalLoop=1;jettySize=auto;html=1;" edge="1" parent="1" source="dcfp-r2JtJvovMV6XzOt-1" target="dcfp-r2JtJvovMV6XzOt-10">
          <mxGeometry relative="1" as="geometry" />
        </mxCell>
        <mxCell id="dcfp-r2JtJvovMV6XzOt-5" value="Any Message" style="edgeLabel;html=1;align=center;verticalAlign=middle;resizable=0;points=[];" vertex="1" connectable="0" parent="dcfp-r2JtJvovMV6XzOt-4">
          <mxGeometry x="0.1778" y="1" relative="1" as="geometry">
            <mxPoint as="offset" />
          </mxGeometry>
        </mxCell>
        <mxCell id="dcfp-r2JtJvovMV6XzOt-1" value="Inicial" style="rounded=1;whiteSpace=wrap;html=1;strokeColor=#8769FF;" vertex="1" parent="1">
          <mxGeometry x="354" y="210" width="120" height="60" as="geometry" />
        </mxCell>
        <mxCell id="dcfp-r2JtJvovMV6XzOt-54" style="edgeStyle=orthogonalEdgeStyle;rounded=0;orthogonalLoop=1;jettySize=auto;html=1;entryX=0;entryY=0.5;entryDx=0;entryDy=0;strokeColor=#FFFFFF;fillColor=#FF1414;" edge="1" parent="1" source="dcfp-r2JtJvovMV6XzOt-2" target="dcfp-r2JtJvovMV6XzOt-16">
          <mxGeometry relative="1" as="geometry">
            <Array as="points">
              <mxPoint x="180" y="593" />
            </Array>
          </mxGeometry>
        </mxCell>
        <mxCell id="C4SmMeAmN3BLwdg3nXto-1" style="edgeStyle=orthogonalEdgeStyle;rounded=0;orthogonalLoop=1;jettySize=auto;html=1;entryX=0;entryY=0.5;entryDx=0;entryDy=0;strokeColor=#8769FF;fillColor=#FF1414;" edge="1" parent="1" source="dcfp-r2JtJvovMV6XzOt-2" target="dcfp-r2JtJvovMV6XzOt-16">
          <mxGeometry relative="1" as="geometry">
            <Array as="points">
              <mxPoint x="170" y="593" />
              <mxPoint x="292" y="593" />
            </Array>
          </mxGeometry>
        </mxCell>
        <mxCell id="dcfp-r2JtJvovMV6XzOt-2" value="Enviar Termos de Uso e Política de Privacidade" style="rounded=1;whiteSpace=wrap;html=1;" vertex="1" parent="1">
          <mxGeometry x="110" y="480" width="120" height="60" as="geometry" />
        </mxCell>
        <mxCell id="dcfp-r2JtJvovMV6XzOt-14" style="edgeStyle=orthogonalEdgeStyle;rounded=0;orthogonalLoop=1;jettySize=auto;html=1;strokeColor=#8769FF;" edge="1" parent="1" source="dcfp-r2JtJvovMV6XzOt-10" target="dcfp-r2JtJvovMV6XzOt-2">
          <mxGeometry relative="1" as="geometry" />
        </mxCell>
        <mxCell id="dcfp-r2JtJvovMV6XzOt-15" value="(se primeiro acesso)" style="edgeLabel;html=1;align=center;verticalAlign=middle;resizable=0;points=[];" vertex="1" connectable="0" parent="dcfp-r2JtJvovMV6XzOt-14">
          <mxGeometry x="-0.0933" y="3" relative="1" as="geometry">
            <mxPoint as="offset" />
          </mxGeometry>
        </mxCell>
        <mxCell id="dcfp-r2JtJvovMV6XzOt-17" style="edgeStyle=orthogonalEdgeStyle;rounded=0;orthogonalLoop=1;jettySize=auto;html=1;strokeColor=#8769FF;" edge="1" parent="1" source="dcfp-r2JtJvovMV6XzOt-10" target="dcfp-r2JtJvovMV6XzOt-16">
          <mxGeometry relative="1" as="geometry">
            <Array as="points">
              <mxPoint x="414" y="530" />
              <mxPoint x="414" y="530" />
            </Array>
          </mxGeometry>
        </mxCell>
        <mxCell id="dcfp-r2JtJvovMV6XzOt-18" value="(não é primeiro acesso)" style="edgeLabel;html=1;align=center;verticalAlign=middle;resizable=0;points=[];" vertex="1" connectable="0" parent="dcfp-r2JtJvovMV6XzOt-17">
          <mxGeometry x="0.2018" y="2" relative="1" as="geometry">
            <mxPoint x="-46" y="1" as="offset" />
          </mxGeometry>
        </mxCell>
        <mxCell id="dcfp-r2JtJvovMV6XzOt-10" value="Mensagens de boas vindas" style="rounded=1;whiteSpace=wrap;html=1;" vertex="1" parent="1">
          <mxGeometry x="354" y="380" width="120" height="60" as="geometry" />
        </mxCell>
        <mxCell id="dcfp-r2JtJvovMV6XzOt-21" style="edgeStyle=orthogonalEdgeStyle;rounded=0;orthogonalLoop=1;jettySize=auto;html=1;" edge="1" parent="1" source="dcfp-r2JtJvovMV6XzOt-16" target="dcfp-r2JtJvovMV6XzOt-20">
          <mxGeometry relative="1" as="geometry" />
        </mxCell>
        <mxCell id="dcfp-r2JtJvovMV6XzOt-22" value="Text" style="edgeLabel;html=1;align=center;verticalAlign=middle;resizable=0;points=[];" vertex="1" connectable="0" parent="dcfp-r2JtJvovMV6XzOt-21">
          <mxGeometry x="0.2632" y="1" relative="1" as="geometry">
            <mxPoint as="offset" />
          </mxGeometry>
        </mxCell>
        <mxCell id="dcfp-r2JtJvovMV6XzOt-28" style="edgeStyle=orthogonalEdgeStyle;rounded=0;orthogonalLoop=1;jettySize=auto;html=1;entryX=1;entryY=0.5;entryDx=0;entryDy=0;" edge="1" parent="1" source="dcfp-r2JtJvovMV6XzOt-16" target="dcfp-r2JtJvovMV6XzOt-26">
          <mxGeometry relative="1" as="geometry">
            <Array as="points">
              <mxPoint x="430" y="650" />
              <mxPoint x="530" y="650" />
              <mxPoint x="530" y="850" />
            </Array>
          </mxGeometry>
        </mxCell>
        <mxCell id="dcfp-r2JtJvovMV6XzOt-29" value="Localização" style="edgeLabel;html=1;align=center;verticalAlign=middle;resizable=0;points=[];" vertex="1" connectable="0" parent="dcfp-r2JtJvovMV6XzOt-28">
          <mxGeometry x="-0.5628" relative="1" as="geometry">
            <mxPoint as="offset" />
          </mxGeometry>
        </mxCell>
        <mxCell id="dcfp-r2JtJvovMV6XzOt-32" style="edgeStyle=orthogonalEdgeStyle;rounded=0;orthogonalLoop=1;jettySize=auto;html=1;entryX=0;entryY=0.5;entryDx=0;entryDy=0;strokeColor=#FFB570;" edge="1" parent="1" source="dcfp-r2JtJvovMV6XzOt-16" target="dcfp-r2JtJvovMV6XzOt-31">
          <mxGeometry relative="1" as="geometry" />
        </mxCell>
        <mxCell id="dcfp-r2JtJvovMV6XzOt-33" value="Botão (opções)" style="edgeLabel;html=1;align=center;verticalAlign=middle;resizable=0;points=[];" vertex="1" connectable="0" parent="dcfp-r2JtJvovMV6XzOt-32">
          <mxGeometry x="0.211" y="1" relative="1" as="geometry">
            <mxPoint x="-9" y="1" as="offset" />
          </mxGeometry>
        </mxCell>
        <mxCell id="dcfp-r2JtJvovMV6XzOt-37" style="edgeStyle=orthogonalEdgeStyle;rounded=0;orthogonalLoop=1;jettySize=auto;html=1;entryX=0;entryY=0.5;entryDx=0;entryDy=0;" edge="1" parent="1" source="dcfp-r2JtJvovMV6XzOt-16" target="dcfp-r2JtJvovMV6XzOt-36">
          <mxGeometry relative="1" as="geometry">
            <Array as="points">
              <mxPoint x="430" y="475" />
            </Array>
          </mxGeometry>
        </mxCell>
        <mxCell id="dcfp-r2JtJvovMV6XzOt-39" value="Localização tempo real" style="edgeLabel;html=1;align=center;verticalAlign=middle;resizable=0;points=[];" vertex="1" connectable="0" parent="dcfp-r2JtJvovMV6XzOt-37">
          <mxGeometry x="-0.2302" y="1" relative="1" as="geometry">
            <mxPoint x="51" y="-22" as="offset" />
          </mxGeometry>
        </mxCell>
        <mxCell id="dcfp-r2JtJvovMV6XzOt-16" value="Mensagem de ação,&lt;br&gt;pedir localização, cidade estado e botão de mais opções" style="rounded=1;whiteSpace=wrap;html=1;" vertex="1" parent="1">
          <mxGeometry x="354" y="555" width="126" height="75" as="geometry" />
        </mxCell>
        <mxCell id="dcfp-r2JtJvovMV6XzOt-23" style="edgeStyle=orthogonalEdgeStyle;rounded=0;orthogonalLoop=1;jettySize=auto;html=1;strokeColor=#8769FF;" edge="1" parent="1" source="dcfp-r2JtJvovMV6XzOt-20">
          <mxGeometry relative="1" as="geometry">
            <mxPoint x="353" y="620" as="targetPoint" />
            <Array as="points">
              <mxPoint x="334" y="720" />
              <mxPoint x="334" y="620" />
              <mxPoint x="353" y="620" />
            </Array>
          </mxGeometry>
        </mxCell>
        <mxCell id="dcfp-r2JtJvovMV6XzOt-24" value="(cidade não encontrada)" style="edgeLabel;html=1;align=center;verticalAlign=middle;resizable=0;points=[];" vertex="1" connectable="0" parent="dcfp-r2JtJvovMV6XzOt-23">
          <mxGeometry x="-0.0686" relative="1" as="geometry">
            <mxPoint as="offset" />
          </mxGeometry>
        </mxCell>
        <mxCell id="dcfp-r2JtJvovMV6XzOt-27" style="edgeStyle=orthogonalEdgeStyle;rounded=0;orthogonalLoop=1;jettySize=auto;html=1;entryX=0.5;entryY=0;entryDx=0;entryDy=0;strokeColor=#8769FF;" edge="1" parent="1" source="dcfp-r2JtJvovMV6XzOt-20" target="dcfp-r2JtJvovMV6XzOt-26">
          <mxGeometry relative="1" as="geometry">
            <Array as="points">
              <mxPoint x="410" y="780" />
              <mxPoint x="411" y="780" />
            </Array>
          </mxGeometry>
        </mxCell>
        <mxCell id="dcfp-r2JtJvovMV6XzOt-47" value="(encontrou cidade)" style="edgeLabel;html=1;align=center;verticalAlign=middle;resizable=0;points=[];" vertex="1" connectable="0" parent="dcfp-r2JtJvovMV6XzOt-27">
          <mxGeometry x="0.1841" y="2" relative="1" as="geometry">
            <mxPoint x="-22" y="-6" as="offset" />
          </mxGeometry>
        </mxCell>
        <mxCell id="dcfp-r2JtJvovMV6XzOt-20" value="Buscar cidade digitada" style="rounded=1;whiteSpace=wrap;html=1;" vertex="1" parent="1">
          <mxGeometry x="357" y="690" width="120" height="60" as="geometry" />
        </mxCell>
        <mxCell id="dcfp-r2JtJvovMV6XzOt-41" style="edgeStyle=orthogonalEdgeStyle;rounded=0;orthogonalLoop=1;jettySize=auto;html=1;entryX=0.656;entryY=-0.016;entryDx=0;entryDy=0;entryPerimeter=0;" edge="1" parent="1" source="dcfp-r2JtJvovMV6XzOt-26" target="dcfp-r2JtJvovMV6XzOt-40">
          <mxGeometry relative="1" as="geometry">
            <Array as="points">
              <mxPoint x="430" y="949" />
            </Array>
          </mxGeometry>
        </mxCell>
        <mxCell id="dcfp-r2JtJvovMV6XzOt-42" value="Item da lista" style="edgeLabel;html=1;align=center;verticalAlign=middle;resizable=0;points=[];" vertex="1" connectable="0" parent="dcfp-r2JtJvovMV6XzOt-41">
          <mxGeometry x="0.2405" y="-3" relative="1" as="geometry">
            <mxPoint x="12" y="3" as="offset" />
          </mxGeometry>
        </mxCell>
        <mxCell id="dcfp-r2JtJvovMV6XzOt-51" style="edgeStyle=orthogonalEdgeStyle;rounded=0;orthogonalLoop=1;jettySize=auto;html=1;strokeColor=#FF1100;" edge="1" parent="1" source="dcfp-r2JtJvovMV6XzOt-26" target="dcfp-r2JtJvovMV6XzOt-16">
          <mxGeometry relative="1" as="geometry">
            <Array as="points">
              <mxPoint x="580" y="860" />
              <mxPoint x="580" y="610" />
            </Array>
            <mxPoint x="560" y="919.9999999999998" as="targetPoint" />
          </mxGeometry>
        </mxCell>
        <mxCell id="dcfp-r2JtJvovMV6XzOt-52" value="Other types" style="edgeLabel;html=1;align=center;verticalAlign=middle;resizable=0;points=[];" connectable="0" vertex="1" parent="dcfp-r2JtJvovMV6XzOt-51">
          <mxGeometry x="-0.4901" relative="1" as="geometry">
            <mxPoint y="-170" as="offset" />
          </mxGeometry>
        </mxCell>
        <mxCell id="dcfp-r2JtJvovMV6XzOt-55" style="edgeStyle=orthogonalEdgeStyle;rounded=0;orthogonalLoop=1;jettySize=auto;html=1;strokeColor=#000000;fillColor=#FF1414;" edge="1" parent="1" source="dcfp-r2JtJvovMV6XzOt-26" target="dcfp-r2JtJvovMV6XzOt-16">
          <mxGeometry relative="1" as="geometry">
            <Array as="points">
              <mxPoint x="250" y="870" />
              <mxPoint x="250" y="610" />
            </Array>
          </mxGeometry>
        </mxCell>
        <mxCell id="dcfp-r2JtJvovMV6XzOt-56" value="Text = voltar/sair/menu..." style="edgeLabel;html=1;align=center;verticalAlign=middle;resizable=0;points=[];" vertex="1" connectable="0" parent="dcfp-r2JtJvovMV6XzOt-55">
          <mxGeometry x="-0.1849" relative="1" as="geometry">
            <mxPoint as="offset" />
          </mxGeometry>
        </mxCell>
        <mxCell id="t3Ap8lU4wh1FWwCw6jdC-4" style="edgeStyle=orthogonalEdgeStyle;rounded=0;orthogonalLoop=1;jettySize=auto;html=1;entryX=0.5;entryY=1;entryDx=0;entryDy=0;startArrow=none;strokeColor=#8769FF;" edge="1" parent="1" source="t3Ap8lU4wh1FWwCw6jdC-3" target="t3Ap8lU4wh1FWwCw6jdC-1">
          <mxGeometry relative="1" as="geometry">
            <Array as="points">
              <mxPoint x="670" y="870" />
            </Array>
          </mxGeometry>
        </mxCell>
        <mxCell id="Vh3eYKSFMdRtRIJ5QuLC-3" style="edgeStyle=orthogonalEdgeStyle;rounded=0;orthogonalLoop=1;jettySize=auto;html=1;strokeColor=#000000;" edge="1" parent="1" source="dcfp-r2JtJvovMV6XzOt-26">
          <mxGeometry relative="1" as="geometry">
            <mxPoint x="460" y="750" as="targetPoint" />
            <Array as="points">
              <mxPoint x="460" y="750" />
            </Array>
          </mxGeometry>
        </mxCell>
        <mxCell id="Vh3eYKSFMdRtRIJ5QuLC-4" value="Text" style="edgeLabel;html=1;align=center;verticalAlign=middle;resizable=0;points=[];" connectable="0" vertex="1" parent="Vh3eYKSFMdRtRIJ5QuLC-3">
          <mxGeometry x="-0.2476" relative="1" as="geometry">
            <mxPoint as="offset" />
          </mxGeometry>
        </mxCell>
        <mxCell id="dcfp-r2JtJvovMV6XzOt-26" value="Encontrar Cargas próximas (lista) com eventuais filtros&lt;br&gt;Digite um filtro caso desejado" style="rounded=1;whiteSpace=wrap;html=1;" vertex="1" parent="1">
          <mxGeometry x="351" y="810" width="119" height="80" as="geometry" />
        </mxCell>
        <mxCell id="dcfp-r2JtJvovMV6XzOt-81" value="" style="edgeStyle=orthogonalEdgeStyle;rounded=0;orthogonalLoop=1;jettySize=auto;html=1;strokeColor=#FFB570;fillColor=#FF1414;" edge="1" parent="1" source="dcfp-r2JtJvovMV6XzOt-31" target="dcfp-r2JtJvovMV6XzOt-80">
          <mxGeometry relative="1" as="geometry" />
        </mxCell>
        <mxCell id="dcfp-r2JtJvovMV6XzOt-82" value="Buton=fale conosco" style="edgeLabel;html=1;align=center;verticalAlign=middle;resizable=0;points=[];strokeColor=#FFB570;" vertex="1" connectable="0" parent="dcfp-r2JtJvovMV6XzOt-81">
          <mxGeometry x="0.125" y="1" relative="1" as="geometry">
            <mxPoint x="-16" y="-6" as="offset" />
          </mxGeometry>
        </mxCell>
        <mxCell id="dcfp-r2JtJvovMV6XzOt-84" value="" style="edgeStyle=orthogonalEdgeStyle;rounded=0;orthogonalLoop=1;jettySize=auto;html=1;strokeColor=#FFB570;fillColor=#FF1414;entryX=0;entryY=0.5;entryDx=0;entryDy=0;exitX=1;exitY=0.75;exitDx=0;exitDy=0;" edge="1" parent="1" source="dcfp-r2JtJvovMV6XzOt-31" target="dcfp-r2JtJvovMV6XzOt-83">
          <mxGeometry relative="1" as="geometry">
            <mxPoint x="870" y="760" as="targetPoint" />
            <Array as="points">
              <mxPoint x="830" y="617" />
              <mxPoint x="830" y="720" />
            </Array>
          </mxGeometry>
        </mxCell>
        <mxCell id="dcfp-r2JtJvovMV6XzOt-85" value="Buton=historico" style="edgeLabel;html=1;align=center;verticalAlign=middle;resizable=0;points=[];strokeColor=#FFB570;" vertex="1" connectable="0" parent="dcfp-r2JtJvovMV6XzOt-84">
          <mxGeometry x="-0.4339" y="-1" relative="1" as="geometry">
            <mxPoint x="71" y="-199" as="offset" />
          </mxGeometry>
        </mxCell>
        <mxCell id="orWTadppj8avY_5BTdZa-1" style="edgeStyle=orthogonalEdgeStyle;rounded=0;orthogonalLoop=1;jettySize=auto;html=1;exitX=1;exitY=0.25;exitDx=0;exitDy=0;entryX=0;entryY=0.5;entryDx=0;entryDy=0;fillColor=#ffe6cc;strokeColor=#d79b00;" edge="1" parent="1" source="dcfp-r2JtJvovMV6XzOt-31" target="dcfp-r2JtJvovMV6XzOt-72">
          <mxGeometry relative="1" as="geometry">
            <Array as="points">
              <mxPoint x="830" y="568" />
              <mxPoint x="830" y="477" />
            </Array>
          </mxGeometry>
        </mxCell>
        <mxCell id="dcfp-r2JtJvovMV6XzOt-31" value="Opções&lt;br&gt;&lt;div&gt;Histórico de cargas&lt;/div&gt;&lt;div&gt;Fale com um atendente&lt;/div&gt;&lt;div&gt;Reembolso&lt;/div&gt;" style="rounded=1;whiteSpace=wrap;html=1;strokeColor=#FFB570;" vertex="1" parent="1">
          <mxGeometry x="640" y="540" width="160" height="101.25" as="geometry" />
        </mxCell>
        <mxCell id="dcfp-r2JtJvovMV6XzOt-34" style="edgeStyle=orthogonalEdgeStyle;rounded=0;orthogonalLoop=1;jettySize=auto;html=1;entryX=1;entryY=0.25;entryDx=0;entryDy=0;strokeColor=#FF1100;" edge="1" parent="1" source="dcfp-r2JtJvovMV6XzOt-16" target="dcfp-r2JtJvovMV6XzOt-16">
          <mxGeometry relative="1" as="geometry">
            <Array as="points">
              <mxPoint x="440" y="535" />
              <mxPoint x="520" y="535" />
              <mxPoint x="520" y="574" />
            </Array>
          </mxGeometry>
        </mxCell>
        <mxCell id="dcfp-r2JtJvovMV6XzOt-35" value="Other types" style="edgeLabel;html=1;align=center;verticalAlign=middle;resizable=0;points=[];" vertex="1" connectable="0" parent="dcfp-r2JtJvovMV6XzOt-34">
          <mxGeometry x="-0.0241" y="-3" relative="1" as="geometry">
            <mxPoint x="-22" as="offset" />
          </mxGeometry>
        </mxCell>
        <mxCell id="dcfp-r2JtJvovMV6XzOt-38" style="edgeStyle=orthogonalEdgeStyle;rounded=0;orthogonalLoop=1;jettySize=auto;html=1;entryX=1.004;entryY=0.365;entryDx=0;entryDy=0;entryPerimeter=0;strokeColor=#8769FF;" edge="1" parent="1" source="dcfp-r2JtJvovMV6XzOt-36" target="dcfp-r2JtJvovMV6XzOt-16">
          <mxGeometry relative="1" as="geometry">
            <Array as="points">
              <mxPoint x="570" y="582" />
            </Array>
          </mxGeometry>
        </mxCell>
        <mxCell id="dcfp-r2JtJvovMV6XzOt-36" value="Mande a localização sem ser em tempo real (arte como mandar localização)" style="rounded=1;whiteSpace=wrap;html=1;strokeColor=#FF00FF;" vertex="1" parent="1">
          <mxGeometry x="540" y="440" width="140" height="70" as="geometry" />
        </mxCell>
        <mxCell id="dcfp-r2JtJvovMV6XzOt-57" style="edgeStyle=orthogonalEdgeStyle;rounded=0;orthogonalLoop=1;jettySize=auto;html=1;entryX=0.247;entryY=0.983;entryDx=0;entryDy=0;entryPerimeter=0;strokeColor=#000000;fillColor=#FF1414;" edge="1" parent="1" source="dcfp-r2JtJvovMV6XzOt-40" target="dcfp-r2JtJvovMV6XzOt-26">
          <mxGeometry relative="1" as="geometry">
            <Array as="points">
              <mxPoint x="380" y="920" />
              <mxPoint x="380" y="920" />
            </Array>
          </mxGeometry>
        </mxCell>
        <mxCell id="dcfp-r2JtJvovMV6XzOt-58" value="Botao=voltar" style="edgeLabel;html=1;align=center;verticalAlign=middle;resizable=0;points=[];" vertex="1" connectable="0" parent="dcfp-r2JtJvovMV6XzOt-57">
          <mxGeometry x="-0.2617" relative="1" as="geometry">
            <mxPoint y="-17" as="offset" />
          </mxGeometry>
        </mxCell>
        <mxCell id="dcfp-r2JtJvovMV6XzOt-60" style="edgeStyle=orthogonalEdgeStyle;rounded=0;orthogonalLoop=1;jettySize=auto;html=1;strokeColor=#FFB570;fillColor=#FF1414;entryX=1;entryY=0.5;entryDx=0;entryDy=0;" edge="1" parent="1" source="dcfp-r2JtJvovMV6XzOt-40" target="dcfp-r2JtJvovMV6XzOt-87">
          <mxGeometry relative="1" as="geometry">
            <Array as="points">
              <mxPoint x="258" y="1000" />
              <mxPoint x="258" y="1080" />
            </Array>
          </mxGeometry>
        </mxCell>
        <mxCell id="dcfp-r2JtJvovMV6XzOt-61" value="Botao=confirmar&lt;br&gt;(dados não confirmados)" style="edgeLabel;html=1;align=center;verticalAlign=middle;resizable=0;points=[];" vertex="1" connectable="0" parent="dcfp-r2JtJvovMV6XzOt-60">
          <mxGeometry x="-0.12" y="-1" relative="1" as="geometry">
            <mxPoint as="offset" />
          </mxGeometry>
        </mxCell>
        <mxCell id="dcfp-r2JtJvovMV6XzOt-64" style="edgeStyle=orthogonalEdgeStyle;rounded=0;orthogonalLoop=1;jettySize=auto;html=1;entryX=1;entryY=0.75;entryDx=0;entryDy=0;strokeColor=#FF1100;fillColor=#FF1414;" edge="1" parent="1" source="dcfp-r2JtJvovMV6XzOt-40" target="dcfp-r2JtJvovMV6XzOt-40">
          <mxGeometry relative="1" as="geometry">
            <mxPoint x="620.0000000000002" y="1010.0000000000002" as="targetPoint" />
            <Array as="points">
              <mxPoint x="495" y="970" />
              <mxPoint x="495" y="1033" />
            </Array>
          </mxGeometry>
        </mxCell>
        <mxCell id="dcfp-r2JtJvovMV6XzOt-68" value="Other types" style="edgeLabel;html=1;align=center;verticalAlign=middle;resizable=0;points=[];" vertex="1" connectable="0" parent="dcfp-r2JtJvovMV6XzOt-64">
          <mxGeometry x="-0.4941" relative="1" as="geometry">
            <mxPoint x="15" y="14" as="offset" />
          </mxGeometry>
        </mxCell>
        <mxCell id="dcfp-r2JtJvovMV6XzOt-89" style="edgeStyle=orthogonalEdgeStyle;rounded=0;orthogonalLoop=1;jettySize=auto;html=1;entryX=1;entryY=0.5;entryDx=0;entryDy=0;strokeColor=#000000;fillColor=#FF1414;" edge="1" parent="1" source="dcfp-r2JtJvovMV6XzOt-40" target="dcfp-r2JtJvovMV6XzOt-59">
          <mxGeometry relative="1" as="geometry">
            <Array as="points">
              <mxPoint x="243" y="990" />
              <mxPoint x="243" y="930" />
            </Array>
          </mxGeometry>
        </mxCell>
        <mxCell id="dcfp-r2JtJvovMV6XzOt-90" value="Botao=confirmar&lt;br&gt;(dados confirmados)" style="edgeLabel;html=1;align=center;verticalAlign=middle;resizable=0;points=[];" vertex="1" connectable="0" parent="dcfp-r2JtJvovMV6XzOt-89">
          <mxGeometry x="0.0792" y="3" relative="1" as="geometry">
            <mxPoint y="3" as="offset" />
          </mxGeometry>
        </mxCell>
        <mxCell id="dcfp-r2JtJvovMV6XzOt-40" value="Exibir detalhes do item escolhido&lt;br&gt;Botões confirmar e escolher outra opção&lt;br&gt;exibir valor da comissão (30% valor por tonelada)" style="rounded=1;whiteSpace=wrap;html=1;" vertex="1" parent="1">
          <mxGeometry x="346" y="950" width="129" height="110" as="geometry" />
        </mxCell>
        <mxCell id="dcfp-r2JtJvovMV6XzOt-43" style="edgeStyle=orthogonalEdgeStyle;rounded=0;orthogonalLoop=1;jettySize=auto;html=1;" edge="1" parent="1" source="dcfp-r2JtJvovMV6XzOt-26" target="dcfp-r2JtJvovMV6XzOt-26">
          <mxGeometry relative="1" as="geometry">
            <Array as="points">
              <mxPoint x="320" y="860" />
              <mxPoint x="320" y="820" />
            </Array>
          </mxGeometry>
        </mxCell>
        <mxCell id="dcfp-r2JtJvovMV6XzOt-44" value="Localização," style="edgeLabel;html=1;align=center;verticalAlign=middle;resizable=0;points=[];" vertex="1" connectable="0" parent="dcfp-r2JtJvovMV6XzOt-43">
          <mxGeometry x="-0.1834" y="2" relative="1" as="geometry">
            <mxPoint y="-9" as="offset" />
          </mxGeometry>
        </mxCell>
        <mxCell id="dcfp-r2JtJvovMV6XzOt-86" style="edgeStyle=orthogonalEdgeStyle;rounded=0;orthogonalLoop=1;jettySize=auto;html=1;entryX=0.008;entryY=0.383;entryDx=0;entryDy=0;entryPerimeter=0;strokeColor=#8769FF;fillColor=#FF1414;" edge="1" parent="1" source="dcfp-r2JtJvovMV6XzOt-59" target="dcfp-r2JtJvovMV6XzOt-1">
          <mxGeometry relative="1" as="geometry">
            <Array as="points">
              <mxPoint x="60" y="233" />
            </Array>
          </mxGeometry>
        </mxCell>
        <mxCell id="dcfp-r2JtJvovMV6XzOt-59" value="Enviar link de pagamento&lt;br&gt;(arte no link de pagamento)" style="rounded=1;whiteSpace=wrap;html=1;strokeColor=#FF00FF;" vertex="1" parent="1">
          <mxGeometry x="20" y="900" width="120" height="60" as="geometry" />
        </mxCell>
        <mxCell id="dcfp-r2JtJvovMV6XzOt-72" value="exibir as ultimas 5 cargas aceitas" style="rounded=1;whiteSpace=wrap;html=1;strokeColor=#FFB570;" vertex="1" parent="1">
          <mxGeometry x="1003" y="437" width="130" height="80" as="geometry" />
        </mxCell>
        <mxCell id="dcfp-r2JtJvovMV6XzOt-80" value="enviar mensagem de retorno e enviar o contato a um dos nossos atendentes" style="whiteSpace=wrap;html=1;rounded=1;strokeColor=#FFB570;" vertex="1" parent="1">
          <mxGeometry x="1006" y="562.5" width="120" height="60" as="geometry" />
        </mxCell>
        <mxCell id="orWTadppj8avY_5BTdZa-5" value="" style="edgeStyle=orthogonalEdgeStyle;rounded=0;orthogonalLoop=1;jettySize=auto;html=1;fillColor=#ffe6cc;strokeColor=#d79b00;" edge="1" parent="1" source="dcfp-r2JtJvovMV6XzOt-83" target="orWTadppj8avY_5BTdZa-4">
          <mxGeometry relative="1" as="geometry">
            <Array as="points">
              <mxPoint x="1180" y="700" />
              <mxPoint x="1180" y="660" />
            </Array>
          </mxGeometry>
        </mxCell>
        <mxCell id="orWTadppj8avY_5BTdZa-7" value="" style="edgeStyle=orthogonalEdgeStyle;rounded=0;orthogonalLoop=1;jettySize=auto;html=1;fillColor=#ffe6cc;strokeColor=#d79b00;" edge="1" parent="1" source="dcfp-r2JtJvovMV6XzOt-83" target="orWTadppj8avY_5BTdZa-6">
          <mxGeometry relative="1" as="geometry">
            <Array as="points">
              <mxPoint x="1180" y="730" />
              <mxPoint x="1180" y="770" />
            </Array>
          </mxGeometry>
        </mxCell>
        <mxCell id="dcfp-r2JtJvovMV6XzOt-83" value="Opções&lt;br&gt;-aceitar uma carga grátis&lt;br&gt;-reembolsar ultimo pagamento" style="whiteSpace=wrap;html=1;rounded=1;strokeColor=#FFB570;" vertex="1" parent="1">
          <mxGeometry x="986" y="680" width="174" height="80" as="geometry" />
        </mxCell>
        <mxCell id="dcfp-r2JtJvovMV6XzOt-88" style="edgeStyle=orthogonalEdgeStyle;rounded=0;orthogonalLoop=1;jettySize=auto;html=1;strokeColor=#FFB570;fillColor=#FF1414;" edge="1" parent="1" source="dcfp-r2JtJvovMV6XzOt-87" target="dcfp-r2JtJvovMV6XzOt-59">
          <mxGeometry relative="1" as="geometry" />
        </mxCell>
        <mxCell id="dcfp-r2JtJvovMV6XzOt-91" value="Text" style="edgeLabel;html=1;align=center;verticalAlign=middle;resizable=0;points=[];" vertex="1" connectable="0" parent="dcfp-r2JtJvovMV6XzOt-88">
          <mxGeometry x="-0.425" relative="1" as="geometry">
            <mxPoint as="offset" />
          </mxGeometry>
        </mxCell>
        <mxCell id="dcfp-r2JtJvovMV6XzOt-87" value="Confirmar dados&lt;br&gt;(nome, cpf e email)" style="rounded=1;whiteSpace=wrap;html=1;strokeColor=#FFB570;" vertex="1" parent="1">
          <mxGeometry x="50" y="1050" width="120" height="60" as="geometry" />
        </mxCell>
        <mxCell id="eSQK8R6zI8nVOV4zui6Q-2" value="" style="verticalLabelPosition=bottom;html=1;verticalAlign=top;strokeWidth=2;shape=mxgraph.lean_mapping.sequenced_pull_ball;strokeColor=#FF1414;" vertex="1" parent="1">
          <mxGeometry x="80" y="50" width="20" height="20" as="geometry" />
        </mxCell>
        <mxCell id="eSQK8R6zI8nVOV4zui6Q-3" value="Transições de erro.&lt;br&gt;Ocorrem quando o usuário faz uma ação inesperada (envio de áudio, mídia, etc..)&lt;br&gt;É necessário um modelo de mensagem de erro para essas situações (Prioridade ALTA)." style="text;html=1;align=left;verticalAlign=middle;resizable=0;points=[];autosize=1;strokeColor=none;fillColor=none;" vertex="1" parent="1">
          <mxGeometry x="110" y="35" width="480" height="50" as="geometry" />
        </mxCell>
        <mxCell id="eSQK8R6zI8nVOV4zui6Q-4" value="" style="verticalLabelPosition=bottom;html=1;verticalAlign=top;strokeWidth=2;shape=mxgraph.lean_mapping.sequenced_pull_ball;strokeColor=#FFB570;" vertex="1" parent="1">
          <mxGeometry x="80" y="110" width="20" height="20" as="geometry" />
        </mxCell>
        <mxCell id="eSQK8R6zI8nVOV4zui6Q-5" value="Estados e transições incompletos.&lt;br&gt;Possivelmente necessária a separação em mais estados e transições.&lt;br&gt;É necessária modelo de mensagem para cada estado.&amp;nbsp;&lt;span style=&quot;background-color: initial;&quot;&gt;(Prioridade MÉDIA)&lt;/span&gt;" style="text;html=1;align=left;verticalAlign=middle;resizable=0;points=[];autosize=1;strokeColor=none;fillColor=none;" vertex="1" parent="1">
          <mxGeometry x="110" y="100" width="410" height="50" as="geometry" />
        </mxCell>
        <mxCell id="eSQK8R6zI8nVOV4zui6Q-6" value="" style="verticalLabelPosition=bottom;html=1;verticalAlign=top;strokeWidth=2;shape=mxgraph.lean_mapping.sequenced_pull_ball;strokeColor=#000000;" vertex="1" parent="1">
          <mxGeometry x="600" y="45" width="20" height="20" as="geometry" />
        </mxCell>
        <mxCell id="eSQK8R6zI8nVOV4zui6Q-7" value="Estados que interagem com o usuário.&lt;br&gt;Transições que dependem de ação do usuário.&lt;br&gt;É necessário um modelo de mensagem para cada estado (Prioridade ALTA)" style="text;html=1;align=left;verticalAlign=middle;resizable=0;points=[];autosize=1;strokeColor=none;fillColor=none;" vertex="1" parent="1">
          <mxGeometry x="630" y="30" width="420" height="50" as="geometry" />
        </mxCell>
        <mxCell id="eSQK8R6zI8nVOV4zui6Q-8" value="" style="verticalLabelPosition=bottom;html=1;verticalAlign=top;strokeWidth=2;shape=mxgraph.lean_mapping.sequenced_pull_ball;strokeColor=#FF00FF;" vertex="1" parent="1">
          <mxGeometry x="600" y="95" width="20" height="20" as="geometry" />
        </mxCell>
        <mxCell id="eSQK8R6zI8nVOV4zui6Q-9" value="Estados que enviam mídia.&lt;br&gt;É necessário um modelo de mensagem e uma arte para cada estado (Prioridade ALTA)" style="text;html=1;align=left;verticalAlign=middle;resizable=0;points=[];autosize=1;strokeColor=none;fillColor=none;" vertex="1" parent="1">
          <mxGeometry x="630" y="90" width="480" height="30" as="geometry" />
        </mxCell>
        <mxCell id="eSQK8R6zI8nVOV4zui6Q-10" value="" style="verticalLabelPosition=bottom;html=1;verticalAlign=top;strokeWidth=2;shape=mxgraph.lean_mapping.sequenced_pull_ball;strokeColor=#8769FF;" vertex="1" parent="1">
          <mxGeometry x="600" y="140" width="20" height="20" as="geometry" />
        </mxCell>
        <mxCell id="eSQK8R6zI8nVOV4zui6Q-11" value="Estados que não interagem com o usuário.&lt;br&gt;Transições que independem de ação do usuário (transições automáticas)." style="text;html=1;align=left;verticalAlign=middle;resizable=0;points=[];autosize=1;strokeColor=none;fillColor=none;" vertex="1" parent="1">
          <mxGeometry x="630" y="135" width="410" height="30" as="geometry" />
        </mxCell>
        <mxCell id="eSQK8R6zI8nVOV4zui6Q-14" style="edgeStyle=orthogonalEdgeStyle;rounded=0;orthogonalLoop=1;jettySize=auto;html=1;" edge="1" parent="1" source="eSQK8R6zI8nVOV4zui6Q-13" target="eSQK8R6zI8nVOV4zui6Q-16">
          <mxGeometry relative="1" as="geometry">
            <mxPoint x="510" y="240" as="targetPoint" />
            <Array as="points">
              <mxPoint x="760" y="240" />
              <mxPoint x="760" y="240" />
            </Array>
          </mxGeometry>
        </mxCell>
        <mxCell id="eSQK8R6zI8nVOV4zui6Q-15" value="Pagamento confirmado" style="edgeLabel;html=1;align=center;verticalAlign=middle;resizable=0;points=[];" connectable="0" vertex="1" parent="eSQK8R6zI8nVOV4zui6Q-14">
          <mxGeometry x="-0.1201" y="1" relative="1" as="geometry">
            <mxPoint x="-4" y="-1" as="offset" />
          </mxGeometry>
        </mxCell>
        <mxCell id="eSQK8R6zI8nVOV4zui6Q-13" value="Qualquer estado" style="rounded=1;whiteSpace=wrap;html=1;strokeColor=#000000;" vertex="1" parent="1">
          <mxGeometry x="940" y="210" width="120" height="60" as="geometry" />
        </mxCell>
        <mxCell id="eSQK8R6zI8nVOV4zui6Q-17" style="edgeStyle=orthogonalEdgeStyle;rounded=0;orthogonalLoop=1;jettySize=auto;html=1;entryX=1;entryY=0.5;entryDx=0;entryDy=0;strokeColor=#8769FF;" edge="1" parent="1" source="eSQK8R6zI8nVOV4zui6Q-16" target="dcfp-r2JtJvovMV6XzOt-1">
          <mxGeometry relative="1" as="geometry" />
        </mxCell>
        <mxCell id="eSQK8R6zI8nVOV4zui6Q-16" value="Mensagem e email de pagamento confirmado com detalhes da carga para caminhoneiro e transportadora" style="rounded=1;whiteSpace=wrap;html=1;strokeColor=#CCCCCC;" vertex="1" parent="1">
          <mxGeometry x="590" y="202.5" width="150" height="75" as="geometry" />
        </mxCell>
        <mxCell id="YmoYW2V7ziZV7h9VxeGQ-1" value="" style="verticalLabelPosition=bottom;html=1;verticalAlign=top;strokeWidth=2;shape=mxgraph.lean_mapping.sequenced_pull_ball;strokeColor=#CCCCCC;" vertex="1" parent="1">
          <mxGeometry x="80" y="165" width="20" height="20" as="geometry" />
        </mxCell>
        <mxCell id="YmoYW2V7ziZV7h9VxeGQ-2" value="Estados que interagem com mais de um usuário.&lt;br&gt;É necessário um ou mais modelos de mensagem para cada estado (Prioridade ALTA)" style="text;html=1;align=left;verticalAlign=middle;resizable=0;points=[];autosize=1;strokeColor=none;fillColor=none;" vertex="1" parent="1">
          <mxGeometry x="110" y="160" width="470" height="30" as="geometry" />
        </mxCell>
        <mxCell id="2KpZq5GsKy7rdT73ONx--3" style="edgeStyle=orthogonalEdgeStyle;rounded=0;orthogonalLoop=1;jettySize=auto;html=1;" edge="1" parent="1" source="2KpZq5GsKy7rdT73ONx--5" target="2KpZq5GsKy7rdT73ONx--7">
          <mxGeometry relative="1" as="geometry">
            <mxPoint x="696" y="297.5" as="targetPoint" />
            <Array as="points">
              <mxPoint x="946" y="297.5" />
              <mxPoint x="946" y="297.5" />
            </Array>
          </mxGeometry>
        </mxCell>
        <mxCell id="2KpZq5GsKy7rdT73ONx--4" value="Pagamento Criado" style="edgeLabel;html=1;align=center;verticalAlign=middle;resizable=0;points=[];" connectable="0" vertex="1" parent="2KpZq5GsKy7rdT73ONx--3">
          <mxGeometry x="-0.1201" y="1" relative="1" as="geometry">
            <mxPoint x="-4" y="-1" as="offset" />
          </mxGeometry>
        </mxCell>
        <mxCell id="2KpZq5GsKy7rdT73ONx--5" value="Qualquer estado" style="rounded=1;whiteSpace=wrap;html=1;strokeColor=#000000;" vertex="1" parent="1">
          <mxGeometry x="1126" y="267.5" width="120" height="60" as="geometry" />
        </mxCell>
        <mxCell id="2KpZq5GsKy7rdT73ONx--6" style="edgeStyle=orthogonalEdgeStyle;rounded=0;orthogonalLoop=1;jettySize=auto;html=1;strokeColor=#8769FF;entryX=0.75;entryY=1;entryDx=0;entryDy=0;" edge="1" parent="1" source="2KpZq5GsKy7rdT73ONx--7" target="dcfp-r2JtJvovMV6XzOt-1">
          <mxGeometry relative="1" as="geometry">
            <mxPoint x="540" y="298" as="targetPoint" />
            <Array as="points">
              <mxPoint x="444" y="298" />
            </Array>
          </mxGeometry>
        </mxCell>
        <mxCell id="2KpZq5GsKy7rdT73ONx--7" value="Mensagem e email de pagamento criado (pix/boleto/cartao) e logo sera confirmado" style="rounded=1;whiteSpace=wrap;html=1;strokeColor=#CCCCCC;" vertex="1" parent="1">
          <mxGeometry x="776" y="260" width="150" height="75" as="geometry" />
        </mxCell>
        <mxCell id="Vh3eYKSFMdRtRIJ5QuLC-5" style="edgeStyle=orthogonalEdgeStyle;rounded=0;orthogonalLoop=1;jettySize=auto;html=1;entryX=1;entryY=0.6;entryDx=0;entryDy=0;entryPerimeter=0;strokeColor=#8769FF;exitX=0.188;exitY=-0.007;exitDx=0;exitDy=0;exitPerimeter=0;" edge="1" parent="1" source="t3Ap8lU4wh1FWwCw6jdC-1" target="dcfp-r2JtJvovMV6XzOt-16">
          <mxGeometry relative="1" as="geometry" />
        </mxCell>
        <mxCell id="t3Ap8lU4wh1FWwCw6jdC-1" value="Nenhuma carga encontrada" style="whiteSpace=wrap;html=1;rounded=1;" vertex="1" parent="1">
          <mxGeometry x="610" y="720" width="120" height="60" as="geometry" />
        </mxCell>
        <mxCell id="t3Ap8lU4wh1FWwCw6jdC-3" value="(não encontrou carga)" style="text;html=1;strokeColor=none;fillColor=none;align=center;verticalAlign=middle;whiteSpace=wrap;rounded=0;" vertex="1" parent="1">
          <mxGeometry x="520" y="860" width="130" height="20" as="geometry" />
        </mxCell>
        <mxCell id="t3Ap8lU4wh1FWwCw6jdC-6" value="" style="edgeStyle=orthogonalEdgeStyle;rounded=0;orthogonalLoop=1;jettySize=auto;html=1;exitX=1;exitY=0.75;exitDx=0;exitDy=0;entryX=0;entryY=0.5;entryDx=0;entryDy=0;endArrow=none;strokeColor=#8769FF;" edge="1" parent="1" source="dcfp-r2JtJvovMV6XzOt-26" target="t3Ap8lU4wh1FWwCw6jdC-3">
          <mxGeometry relative="1" as="geometry">
            <mxPoint x="470" y="870" as="sourcePoint" />
            <mxPoint x="620" y="870" as="targetPoint" />
          </mxGeometry>
        </mxCell>
        <mxCell id="orWTadppj8avY_5BTdZa-2" value="Buton=reembolso" style="edgeLabel;html=1;align=center;verticalAlign=middle;resizable=0;points=[];strokeColor=#FFB570;" connectable="0" vertex="1" parent="1">
          <mxGeometry x="900.0000000000001" y="710" as="geometry" />
        </mxCell>
        <mxCell id="orWTadppj8avY_5BTdZa-4" value="avisar que estamos verificando e notificar nossos atendentes" style="whiteSpace=wrap;html=1;strokeColor=#FFB570;rounded=1;" vertex="1" parent="1">
          <mxGeometry x="1340" y="630" width="120" height="60" as="geometry" />
        </mxCell>
        <mxCell id="orWTadppj8avY_5BTdZa-6" value="avisar que estamos verificando e notificar nossos atendentes" style="whiteSpace=wrap;html=1;strokeColor=#FFB570;rounded=1;" vertex="1" parent="1">
          <mxGeometry x="1340" y="740" width="120" height="60" as="geometry" />
        </mxCell>
        <mxCell id="orWTadppj8avY_5BTdZa-8" value="Buton=carga gratis" style="edgeLabel;html=1;align=center;verticalAlign=middle;resizable=0;points=[];strokeColor=#FFB570;" connectable="0" vertex="1" parent="1">
          <mxGeometry x="1250" y="650" as="geometry">
            <mxPoint x="6" y="1" as="offset" />
          </mxGeometry>
        </mxCell>
        <mxCell id="orWTadppj8avY_5BTdZa-9" value="Buton=reembolso" style="edgeLabel;html=1;align=center;verticalAlign=middle;resizable=0;points=[];strokeColor=#FFB570;" connectable="0" vertex="1" parent="1">
          <mxGeometry x="1250" y="780" as="geometry" />
        </mxCell>
        <mxCell id="4kiO9OVSXpaDb96shQ-6-1" value="" style="edgeStyle=orthogonalEdgeStyle;rounded=0;orthogonalLoop=1;jettySize=auto;html=1;strokeColor=#FFB570;fillColor=#FF1414;" edge="1" parent="1" source="4kiO9OVSXpaDb96shQ-6-6" target="4kiO9OVSXpaDb96shQ-6-8">
          <mxGeometry relative="1" as="geometry" />
        </mxCell>
        <mxCell id="4kiO9OVSXpaDb96shQ-6-2" value="Buton=fale conosco" style="edgeLabel;html=1;align=center;verticalAlign=middle;resizable=0;points=[];strokeColor=#FFB570;" connectable="0" vertex="1" parent="4kiO9OVSXpaDb96shQ-6-1">
          <mxGeometry x="0.125" y="1" relative="1" as="geometry">
            <mxPoint x="-16" y="-6" as="offset" />
          </mxGeometry>
        </mxCell>
        <mxCell id="4kiO9OVSXpaDb96shQ-6-3" value="" style="edgeStyle=orthogonalEdgeStyle;rounded=0;orthogonalLoop=1;jettySize=auto;html=1;strokeColor=#FFB570;fillColor=#FF1414;entryX=0.5;entryY=1;entryDx=0;entryDy=0;exitX=1;exitY=0.75;exitDx=0;exitDy=0;" edge="1" parent="1" source="4kiO9OVSXpaDb96shQ-6-6" target="4kiO9OVSXpaDb96shQ-6-8">
          <mxGeometry relative="1" as="geometry">
            <mxPoint x="1146" y="1153" as="targetPoint" />
            <Array as="points">
              <mxPoint x="990" y="1050" />
              <mxPoint x="990" y="1153" />
              <mxPoint x="1226" y="1153" />
            </Array>
          </mxGeometry>
        </mxCell>
        <mxCell id="4kiO9OVSXpaDb96shQ-6-4" value="Buton=historico" style="edgeLabel;html=1;align=center;verticalAlign=middle;resizable=0;points=[];strokeColor=#FFB570;" connectable="0" vertex="1" parent="4kiO9OVSXpaDb96shQ-6-3">
          <mxGeometry x="-0.4339" y="-1" relative="1" as="geometry">
            <mxPoint x="71" y="-199" as="offset" />
          </mxGeometry>
        </mxCell>
        <mxCell id="4kiO9OVSXpaDb96shQ-6-5" style="edgeStyle=orthogonalEdgeStyle;rounded=0;orthogonalLoop=1;jettySize=auto;html=1;exitX=1;exitY=0.25;exitDx=0;exitDy=0;entryX=0;entryY=0.5;entryDx=0;entryDy=0;fillColor=#ffe6cc;strokeColor=#d79b00;" edge="1" parent="1" source="4kiO9OVSXpaDb96shQ-6-6" target="4kiO9OVSXpaDb96shQ-6-7">
          <mxGeometry relative="1" as="geometry">
            <Array as="points">
              <mxPoint x="990" y="1001" />
              <mxPoint x="990" y="910" />
            </Array>
          </mxGeometry>
        </mxCell>
        <mxCell id="4kiO9OVSXpaDb96shQ-6-6" value="Opções&lt;br&gt;&lt;div&gt;Histórico de cargas&lt;/div&gt;&lt;div&gt;Fale com um atendente&lt;/div&gt;&lt;div&gt;Reembolso&lt;/div&gt;" style="rounded=1;whiteSpace=wrap;html=1;strokeColor=#FFB570;" vertex="1" parent="1">
          <mxGeometry x="800" y="976.75" width="160" height="97.5" as="geometry" />
        </mxCell>
        <mxCell id="4kiO9OVSXpaDb96shQ-6-7" value="exibir as ultimas 5 cargas aceitas" style="rounded=1;whiteSpace=wrap;html=1;strokeColor=#FFB570;" vertex="1" parent="1">
          <mxGeometry x="1163" y="870" width="130" height="80" as="geometry" />
        </mxCell>
        <mxCell id="4kiO9OVSXpaDb96shQ-6-8" value="enviar mensagem de retorno e colocar na fila para atendimento" style="whiteSpace=wrap;html=1;rounded=1;strokeColor=#FFB570;" vertex="1" parent="1">
          <mxGeometry x="1166" y="995.5" width="120" height="60" as="geometry" />
        </mxCell>
        <mxCell id="4kiO9OVSXpaDb96shQ-6-12" value="Buton=reembolso" style="edgeLabel;html=1;align=center;verticalAlign=middle;resizable=0;points=[];strokeColor=#FFB570;" connectable="0" vertex="1" parent="1">
          <mxGeometry x="1060" y="1143" as="geometry" />
        </mxCell>
      </root>
    </mxGraphModel>
  </diagram>
</mxfile>
